<?xml version="1.0" standalone="no"?>
<!DOCTYPE svg PUBLIC "-//W3C//DTD SVG 20010904//EN"
 "http://www.w3.org/TR/2001/REC-SVG-20010904/DTD/svg10.dtd">
<svg version="1.0" xmlns="http://www.w3.org/2000/svg"
 width="128.000000pt" height="128.000000pt" viewBox="0 0 128.000000 128.000000"
 preserveAspectRatio="xMidYMid meet">

<g transform="translate(0.000000,128.000000) scale(0.100000,-0.100000)"
fill="#fff" stroke="none">
<path d="M457 1028 c-323 -303 -377 -360 -377 -395 0 -46 42 -91 91 -99 l39
-7 0 -154 c0 -169 8 -204 55 -241 25 -20 40 -22 140 -22 149 0 148 -1 155 164
l5 121 75 0 75 0 5 -121 c7 -165 6 -164 155 -164 100 0 115 2 140 22 47 37 55
72 55 241 l0 154 39 7 c49 8 91 53 91 99 0 28 -17 48 -122 152 -68 66 -187
180 -265 253 -119 111 -147 132 -173 132 -26 0 -55 -22 -183 -142z m414 -183
l223 -210 -51 -3 c-28 -2 -56 -9 -62 -16 -6 -8 -12 -89 -13 -207 l-3 -194 -72
-3 -73 -3 0 102 c0 157 -30 189 -180 189 -150 0 -180 -32 -180 -189 l0 -102
-72 3 -73 3 -3 194 c-1 118 -7 199 -13 207 -6 7 -33 14 -61 16 l-51 3 224 212
c123 117 227 211 231 210 4 -1 107 -96 229 -212z"/>
</g>
</svg>
