<?xml version="1.0" standalone="no"?>
<!DOCTYPE svg PUBLIC "-//W3C//DTD SVG 20010904//EN"
 "http://www.w3.org/TR/2001/REC-SVG-20010904/DTD/svg10.dtd">
<svg version="1.0" xmlns="http://www.w3.org/2000/svg"
 width="128.000000pt" height="128.000000pt" viewBox="0 0 128.000000 128.000000"
 preserveAspectRatio="xMidYMid meet">

<g transform="translate(0.000000,128.000000) scale(0.100000,-0.100000)"
fill="#fff" stroke="none">
<path d="M83 1240 c-57 -34 -63 -59 -63 -252 0 -260 8 -268 272 -268 256 0
268 12 268 268 0 264 -7 272 -270 272 -156 0 -178 -2 -207 -20z m145 -140 c11
-33 12 -47 3 -62 -15 -24 -3 -47 45 -86 31 -26 40 -29 60 -20 18 8 34 8 64 -2
44 -14 50 -32 24 -68 -49 -71 -236 49 -280 180 l-17 52 32 28 c18 16 38 27 44
25 6 -2 17 -23 25 -47z"/>
<path d="M782 1240 c-53 -33 -62 -68 -62 -252 0 -256 12 -268 268 -268 264 0
272 7 272 270 0 156 -2 178 -20 207 -34 57 -59 63 -252 63 -156 0 -176 -2
-206 -20z m258 -110 c52 -52 26 -123 -47 -128 -48 -4 -74 20 -75 69 -2 63 79
102 122 59z m11 -156 c32 -9 81 -71 82 -105 l2 -34 -135 -3 c-74 -1 -141 2
-149 7 -19 12 1 70 38 105 42 40 90 49 162 30z"/>
<path d="M93 545 c-64 -28 -73 -59 -73 -253 0 -193 6 -218 63 -252 29 -18 51
-20 207 -20 263 0 270 8 270 272 0 256 -12 268 -270 268 -119 -1 -174 -5 -197
-15z m253 -194 l-59 -39 -53 35 c-30 20 -54 37 -54 39 0 2 51 4 113 4 l112 0
-59 -39z m-149 -24 l32 -22 -41 -42 c-23 -24 -46 -43 -50 -43 -4 0 -8 32 -8
71 0 79 2 80 67 36z m243 -39 l0 -72 -45 44 c-24 24 -43 46 -40 48 11 12 71
51 78 52 4 0 7 -32 7 -72z m-77 -54 c26 -23 47 -44 47 -48 0 -3 -54 -6 -120
-6 -67 0 -120 4 -120 9 0 5 21 27 46 49 59 50 86 50 147 -4z"/>
<path d="M791 542 c-62 -33 -71 -65 -71 -250 0 -264 7 -272 270 -272 156 0
178 2 207 20 57 34 63 59 63 252 0 260 -8 268 -272 268 -139 0 -168 -3 -197
-18z m268 -107 c43 -22 78 -69 86 -115 5 -32 2 -51 -17 -88 -30 -61 -74 -87
-153 -88 -33 -1 -74 -5 -91 -9 l-31 -7 -1 49 c-1 26 -4 75 -7 108 -5 50 -2 66
15 93 41 65 132 92 199 57z"/>
<path d="M885 310 c-4 -7 -3 -16 3 -22 14 -14 45 -2 40 15 -6 16 -34 21 -43 7z"/>
<path d="M970 300 c0 -13 7 -20 20 -20 13 0 20 7 20 20 0 13 -7 20 -20 20 -13
0 -20 -7 -20 -20z"/>
<path d="M1054 309 c-9 -15 12 -33 30 -26 9 4 16 13 16 22 0 17 -35 21 -46 4z"/>
</g>
</svg>
