<?xml version="1.0" standalone="no"?>
<!DOCTYPE svg PUBLIC "-//W3C//DTD SVG 20010904//EN"
 "http://www.w3.org/TR/2001/REC-SVG-20010904/DTD/svg10.dtd">
<svg version="1.0" xmlns="http://www.w3.org/2000/svg"
 width="512.000000pt" height="512.000000pt" viewBox="0 0 512.000000 512.000000"
 preserveAspectRatio="xMidYMid meet">

<g transform="translate(0.000000,512.000000) scale(0.100000,-0.100000)"
fill="#fff" stroke="none">
<path d="M892 4929 c-74 -37 -134 -101 -176 -189 -28 -59 -31 -74 -31 -160 0
-102 13 -141 70 -208 l26 -31 -29 -15 c-50 -26 -122 -108 -154 -176 -25 -52
-33 -82 -36 -146 -4 -73 -1 -88 22 -140 28 -62 89 -131 144 -166 l32 -20 -37
-27 c-153 -111 -213 -314 -137 -463 25 -49 25 -53 9 -63 -136 -79 -217 -210
-219 -355 -1 -62 4 -85 26 -132 30 -65 92 -129 166 -173 29 -16 52 -32 52 -35
0 -3 -129 -79 -287 -170 -158 -91 -298 -175 -310 -187 -13 -12 -23 -34 -23
-48 0 -32 41 -75 72 -75 13 0 176 88 363 195 186 107 342 195 345 195 12 0
271 -163 434 -273 88 -59 169 -107 180 -107 52 0 90 65 66 110 -15 29 -400
282 -645 425 -110 64 -217 133 -237 152 -68 66 -73 143 -18 240 54 94 136 132
226 103 22 -7 147 -75 280 -151 170 -98 250 -139 272 -139 54 0 86 51 66 104
-7 18 -24 28 -359 221 -282 163 -298 173 -324 229 -29 60 -26 104 12 177 56
108 138 150 233 119 22 -7 139 -71 261 -141 151 -87 233 -129 253 -129 60 0
92 73 53 118 -10 11 -180 113 -378 227 -360 206 -404 236 -431 287 -35 67 -2
189 67 255 57 53 116 66 190 39 20 -7 162 -85 316 -174 154 -89 289 -162 302
-162 29 0 71 43 71 74 0 14 -10 36 -22 49 -13 14 -178 114 -368 222 -190 109
-361 211 -381 226 -47 37 -69 84 -69 147 0 63 40 143 93 186 35 28 45 31 110
31 l72 0 553 -320 c305 -176 590 -341 635 -368 94 -54 246 -116 392 -160 80
-23 120 -29 200 -30 136 -1 197 22 281 107 71 72 94 127 94 226 0 55 -6 78
-31 128 -41 82 -97 129 -243 203 -66 34 -158 82 -204 106 -80 44 -83 46 -66
64 25 28 117 52 168 45 27 -4 97 -38 190 -91 155 -90 197 -102 229 -67 22 25
22 85 -1 104 -45 40 -307 180 -364 194 -109 28 -232 0 -328 -76 -21 -17 -43
-30 -50 -30 -7 0 -29 13 -50 30 -57 45 -136 78 -205 85 -104 12 -159 -9 -413
-156 -125 -73 -232 -132 -237 -132 -6 0 -106 55 -223 123 -268 154 -304 169
-403 170 -65 0 -85 -4 -137 -31z m1441 -133 c25 -7 72 -34 105 -59 84 -65 211
-141 407 -242 192 -99 229 -124 250 -165 19 -37 19 -113 1 -148 -48 -91 -157
-127 -299 -97 -145 30 -394 130 -487 195 -14 10 -128 77 -255 150 -126 73
-234 135 -238 140 -9 8 345 216 391 230 41 12 74 11 125 -4z"/>
<path d="M4030 4954 c-52 -10 -118 -39 -220 -97 -218 -124 -330 -220 -388
-330 -23 -46 -27 -63 -27 -147 0 -79 4 -103 23 -142 30 -61 92 -122 146 -144
l43 -18 -76 -75 c-95 -95 -132 -166 -139 -266 -3 -55 1 -82 17 -126 27 -72 88
-141 149 -170 26 -12 49 -23 51 -25 2 -2 -14 -18 -35 -36 -73 -63 -115 -113
-147 -178 -29 -58 -32 -74 -32 -150 0 -73 4 -92 27 -135 54 -102 148 -163 265
-173 54 -4 63 -7 57 -21 -4 -9 -13 -38 -21 -66 -41 -144 45 -312 187 -366 58
-23 177 -30 234 -16 l28 8 -20 -33 c-11 -18 -136 -233 -277 -478 -141 -245
-258 -446 -260 -448 -2 -2 -66 33 -144 78 l-141 81 -287 3 c-313 4 -447 18
-648 71 -188 49 -255 82 -531 257 -188 119 -217 128 -253 82 -30 -38 -26 -62
18 -103 43 -40 279 -190 416 -263 l90 -49 -170 3 -170 2 -880 -507 c-484 -280
-888 -517 -897 -529 -25 -28 -22 -65 7 -93 46 -47 -23 -81 825 410 217 125
526 303 685 395 l290 168 280 5 c154 3 322 11 373 18 74 10 110 10 185 0 50
-7 213 -15 362 -18 l270 -6 132 -75 c102 -59 133 -81 133 -97 0 -55 49 -97
235 -203 60 -34 75 -47 75 -66 0 -60 26 -78 595 -407 401 -232 559 -318 582
-319 54 0 93 70 61 113 -7 9 -247 151 -533 316 -286 165 -529 306 -539 313
-18 13 -10 29 143 294 88 153 161 289 161 302 0 31 -43 72 -75 72 -14 0 -36
-10 -48 -22 -12 -13 -82 -128 -156 -255 -73 -128 -138 -233 -143 -233 -8 0
-196 105 -207 116 -6 6 653 1144 663 1144 15 0 206 -113 206 -122 0 -4 -50
-95 -112 -201 -69 -119 -111 -203 -111 -220 0 -55 75 -92 117 -58 8 7 65 100
126 207 61 107 116 194 121 194 5 0 75 -38 156 -85 81 -47 158 -85 171 -85 31
0 72 43 72 75 0 14 -10 36 -22 48 -13 12 -152 96 -310 187 -158 91 -288 167
-288 170 0 3 23 19 52 35 111 65 182 165 195 272 15 130 -82 310 -200 373
l-43 23 30 56 c27 49 30 66 30 136 0 126 -59 243 -161 321 l-43 33 33 20 c54
34 115 103 143 165 55 120 15 290 -92 399 -26 27 -60 55 -76 63 -15 8 -28 17
-28 19 0 3 16 25 35 50 44 58 58 111 53 205 -2 58 -10 89 -32 135 -39 78 -124
167 -185 194 -50 21 -136 33 -181 25z m115 -163 c76 -34 134 -128 135 -216 0
-91 -35 -127 -235 -242 -157 -89 -236 -117 -332 -118 -80 0 -110 15 -150 75
-28 40 -31 116 -7 163 46 90 126 158 318 268 164 94 199 103 271 70z m122
-582 c103 -38 172 -199 128 -294 -25 -52 -59 -77 -254 -190 -200 -115 -266
-146 -352 -165 -199 -44 -316 113 -205 275 49 71 141 139 350 260 218 127 261
142 333 114z m23 -669 c64 -33 129 -138 130 -209 0 -47 -34 -114 -73 -143 -51
-39 -345 -209 -422 -243 -212 -97 -368 -59 -382 92 -12 116 82 214 360 376
261 153 307 168 387 127z m180 -560 c87 -44 148 -179 120 -264 -16 -48 -87
-110 -206 -176 -254 -143 -384 -162 -475 -71 -115 114 -17 277 262 437 68 39
138 76 154 82 47 17 103 14 145 -8z"/>
</g>
</svg>
