<?xml version="1.0" standalone="no"?>
<!DOCTYPE svg PUBLIC "-//W3C//DTD SVG 20010904//EN"
 "http://www.w3.org/TR/2001/REC-SVG-20010904/DTD/svg10.dtd">
<svg version="1.0" xmlns="http://www.w3.org/2000/svg"
 width="512.000000pt" height="512.000000pt" viewBox="0 0 512.000000 512.000000"
 preserveAspectRatio="xMidYMid meet">

<g transform="translate(0.000000,512.000000) scale(0.100000,-0.100000)"
fill="#fff" stroke="none">
<path d="M2330 4853 c-23 -60 -45 -112 -50 -117 -5 -5 -46 -21 -92 -36 -46
-14 -122 -46 -170 -70 l-86 -43 -112 48 -111 49 -134 -135 -134 -134 50 -109
49 -110 -50 -100 c-27 -56 -59 -135 -71 -178 l-22 -76 -114 -43 -113 -42 0
-191 0 -192 103 -38 c56 -20 107 -40 113 -44 5 -4 23 -47 39 -96 15 -49 48
-127 72 -173 l43 -85 -50 -112 -49 -111 134 -134 133 -134 112 49 112 50 104
-52 c57 -29 136 -61 175 -71 59 -15 73 -22 81 -43 5 -14 25 -67 44 -118 l36
-92 188 0 188 0 36 93 c19 50 39 103 44 117 8 21 22 28 81 43 39 10 118 42
175 71 l104 52 112 -50 112 -49 133 134 134 134 -49 111 -50 112 44 86 c24 47
57 127 73 176 l28 89 112 43 113 43 0 191 0 191 -113 43 -114 43 -22 76 c-12
42 -44 121 -71 177 l-50 100 49 110 50 109 -134 134 -134 135 -111 -48 -110
-49 -93 46 c-50 25 -126 55 -167 68 -41 13 -80 28 -87 33 -6 6 -30 59 -53 119
l-41 107 -189 0 -189 0 -41 -107z m383 -589 c351 -77 594 -415 556 -772 -45
-417 -433 -706 -841 -628 -260 50 -477 245 -553 496 -136 452 206 915 678 919
48 1 120 -6 160 -15z"/>
<path d="M453 3962 c-68 -24 -117 -63 -149 -118 l-27 -45 -25 -897 c-24 -852
-24 -901 -8 -973 31 -139 52 -165 498 -614 l408 -411 0 -47 0 -47 138 0 c76 0
288 3 470 7 l332 6 0 351 c-1 567 -3 573 -320 844 -107 91 -265 236 -350 322
-162 162 -188 180 -270 180 -121 0 -220 -97 -220 -216 1 -90 25 -123 240 -335
221 -217 226 -225 171 -280 -52 -52 -65 -45 -236 118 -175 168 -272 277 -302
342 -33 70 -41 160 -19 221 15 40 17 111 16 645 -1 626 -4 681 -46 782 -60
143 -178 208 -301 165z"/>
<path d="M4544 3971 c-74 -18 -136 -77 -174 -165 -46 -108 -49 -155 -50 -791
-1 -534 1 -605 16 -645 22 -61 14 -151 -19 -221 -30 -65 -127 -174 -302 -342
-171 -163 -184 -170 -236 -118 -55 55 -50 63 171 280 215 212 239 245 240 335
0 119 -99 216 -220 216 -82 0 -108 -18 -270 -180 -85 -86 -244 -231 -352 -324
-315 -268 -317 -274 -318 -842 l0 -351 332 -6 c182 -4 394 -7 470 -7 l138 0 0
47 0 47 408 411 c446 449 467 475 498 614 16 72 16 121 -8 967 -25 875 -26
893 -47 938 -47 96 -178 161 -277 137z"/>
<path d="M1268 650 c-372 -5 -388 -6 -415 -26 -44 -33 -51 -71 -46 -239 6
-164 12 -183 64 -211 28 -14 98 -15 720 -8 648 6 690 8 719 26 54 32 63 73 57
240 -4 81 -11 157 -17 168 -6 12 -26 30 -43 40 -35 22 -118 23 -1039 10z m912
-180 c12 -12 20 -33 20 -55 0 -46 -29 -75 -75 -75 -46 0 -75 29 -75 75 0 22 8
43 20 55 12 12 33 20 55 20 22 0 43 -8 55 -20z"/>
<path d="M2813 641 c-17 -11 -37 -29 -43 -41 -6 -11 -13 -87 -17 -168 -6 -167
3 -208 57 -240 29 -18 71 -20 719 -26 622 -7 692 -6 720 8 55 29 59 45 63 226
3 145 1 169 -15 193 -36 56 -16 54 -762 61 -678 7 -691 7 -722 -13z m237 -171
c12 -12 20 -33 20 -55 0 -46 -29 -75 -75 -75 -46 0 -75 29 -75 75 0 22 8 43
20 55 12 12 33 20 55 20 22 0 43 -8 55 -20z"/>
</g>
</svg>
