<?xml version="1.0" standalone="no"?>
<!DOCTYPE svg PUBLIC "-//W3C//DTD SVG 20010904//EN"
 "http://www.w3.org/TR/2001/REC-SVG-20010904/DTD/svg10.dtd">
<svg version="1.0" xmlns="http://www.w3.org/2000/svg"
 width="377.000000pt" height="490.000000pt" viewBox="0 0 377.000000 490.000000"
 preserveAspectRatio="xMidYMid meet">

<g transform="translate(0.000000,490.000000) scale(0.100000,-0.100000)"
fill="#fff" stroke="none">
<path d="M442 4633 l3 -158 623 0 622 0 1 -1555 c1 -855 0 -1565 -1 -1578 l-1
-23 163 3 163 3 0 1570 c0 1512 -1 1570 -18 1568 -12 -1 -17 4 -13 14 3 8 6
20 7 26 0 7 4 2 9 -10 l9 -22 646 -1 645 0 0 160 0 160 -1430 0 -1431 0 3
-157z m35 -95 c-3 -8 -6 -5 -6 6 -1 11 2 17 5 13 3 -3 4 -12 1 -19z m1173 -3
c0 -2 -9 -9 -20 -15 -16 -9 -20 -8 -20 5 0 8 9 15 20 15 11 0 20 -2 20 -5z
m430 -22 c-1 -27 -1 -27 -15 -9 -14 19 -12 36 6 36 5 0 9 -12 9 -27z m1177
-15 c-3 -8 -6 -5 -6 6 -1 11 2 17 5 13 3 -3 4 -12 1 -19z m-1330 -60 c-3 -7
-5 -2 -5 12 0 14 2 19 5 13 2 -7 2 -19 0 -25z m-175 -1531 c-1 -837 -5 -1524
-10 -1529 -4 -4 -7 685 -7 1531 0 1024 3 1534 10 1528 7 -6 9 -526 7 -1530z
m-22 -1552 c10 -12 10 -15 -4 -15 -9 0 -16 7 -16 15 0 8 2 15 4 15 2 0 9 -7
16 -15z m277 -5 c4 -13 3 -13 -6 0 -7 10 -11 11 -11 3 0 -7 -7 -13 -15 -13 -8
0 -15 4 -15 8 0 26 41 27 47 2z m-67 -4 c0 -3 -4 -8 -10 -11 -5 -3 -10 -1 -10
4 0 6 5 11 10 11 6 0 10 -2 10 -4z"/>
<path d="M3330 3083 c0 -708 -4 -1193 -10 -1248 -24 -211 -72 -381 -161 -560
-207 -421 -593 -713 -1074 -815 -144 -31 -402 -38 -555 -16 -330 48 -623 171
-891 374 -56 42 -111 84 -122 92 -19 13 -27 7 -140 -110 l-120 -124 39 -34
c427 -372 1052 -579 1604 -533 620 53 1132 342 1452 820 160 239 265 535 299
841 11 104 9 664 -7 1968 l-7 502 -153 0 -154 0 0 -1157z"/>
</g>
</svg>
